<?xml version="1.0" encoding="UTF-8"?>
<svg width="394px" height="522px" viewBox="0 0 394 522" version="1.1" xmlns="http://www.w3.org/2000/svg" xmlns:xlink="http://www.w3.org/1999/xlink">
    <!-- Generator: Sketch 55.2 (78181) - https://sketchapp.com -->
    <title>china</title>
    <desc>Created with Sketch.</desc>
    <defs>
        <circle id="path-1" cx="144" cy="144" r="144"></circle>
    </defs>
    <g id="Map-Pin-Collection-Flags---Flat-Style" stroke="none" stroke-width="1" fill="none" fill-rule="evenodd">
        <g id="Flat-Colors-Blue" transform="translate(-95.000000, -6215.000000)">
            <g id="china" transform="translate(100.000000, 6220.000000)">
                <path d="M170.212439,503.092909 L170.210104,503.089529 C147.603539,470.316717 135.66262,453.231309 98.6528889,400.49836 C72.610034,363.391456 60.8130392,346.3874 49.5611526,329.534042 C22.0576461,288.338598 9.26101232,264.050069 2.86645193,239.769209 C-0.913750232,225.415359 -2.5,210.732512 -2.5,192 C-2.5,84.5802881 84.5802881,-2.5 192,-2.5 C299.419712,-2.5 386.5,84.5802881 386.5,192 C386.5,210.732512 384.91375,225.415359 381.133548,239.769209 C374.738988,264.050069 361.942354,288.338598 334.438847,329.534042 C323.186961,346.3874 311.389966,363.391456 285.347111,400.49836 C248.33738,453.231309 236.396461,470.316717 213.78754,503.09294 C203.258631,518.302713 180.740769,518.302337 170.212439,503.092909 Z" id="Path" stroke="#3D3D3D" stroke-width="5" fill="#54A0FF"></path>
                <path d="M191.732,0 C297.771,0 383.732,85.961 383.732,192 C383.732,269.413 356.762,291.031 211.464,501.67 C206.459458,508.899425 198.463221,512.334137 190.615878,511.974569" id="Shape" fill="#2E86DE"></path>
                <g id="Bg" transform="translate(48.000000, 48.000000)">
                    <mask id="mask-2" fill="white">
                        <use xlink:href="#path-1"></use>
                    </mask>
                    <circle stroke="#3D3D3D" stroke-width="5" cx="144" cy="144" r="146.5"></circle>
                    <g id="china" mask="url(#mask-2)">
                        <g transform="translate(-1.000000, -1.000000)">
                            <circle id="Oval" fill="#D80027" fill-rule="nonzero" cx="145" cy="145" r="145"></circle>
                            <g id="Group" stroke-width="1" fill="none" fill-rule="evenodd" transform="translate(26.054688, 64.570312)">
                                <polygon id="Path" fill="#FFDA44" fill-rule="nonzero" points="53.2988281 23.6757813 65.8164062 62.1914063 106.314453 62.1914063 73.5761719 86.0371094 86.09375 124.552734 53.2988281 100.763672 20.5039062 124.552734 33.078125 86.0371094 0.283203125 62.1914063 40.78125 62.1914063"></polygon>
                                <polygon id="Path" fill="#FFDA44" fill-rule="nonzero" points="145.849609 160.009766 136.277344 148.228516 122.117188 153.722656 130.330078 140.978516 120.757812 129.140625 135.427734 133.048828 143.697266 120.304688 144.490234 135.484375 159.216797 139.392578 145 144.830078"></polygon>
                                <polygon id="Path" fill="#FFDA44" fill-rule="nonzero" points="164.880859 125.458984 169.412109 110.958984 157.007812 102.179687 172.1875 101.953125 176.662109 87.453125 181.589844 101.839844 196.769531 101.669922 184.591797 110.732422 189.462891 125.119141 177.058594 116.339844"></polygon>
                                <polygon id="Path" fill="#FFDA44" fill-rule="nonzero" points="190.539062 41.8574219 183.855469 55.5078125 194.730469 66.0996094 179.720703 63.9472656 173.037109 77.5410156 170.431641 62.5878906 155.365234 60.4355469 168.845703 53.3554687 166.240234 38.3457031 177.115234 48.9375"></polygon>
                                <polygon id="Path" fill="#FFDA44" fill-rule="nonzero" points="146.246094 0.509765625 145.113281 15.6328125 159.216797 21.3535156 144.433594 24.9785156 143.357422 40.1582031 135.371094 27.2441406 120.587891 30.8691406 130.386719 19.2578125 122.34375 6.40039063 136.447266 12.1210937"></polygon>
                            </g>
                        </g>
                    </g>
                </g>
            </g>
        </g>
    </g>
</svg>