<?xml version="1.0" encoding="UTF-8"?>
<svg width="394px" height="522px" viewBox="0 0 394 522" version="1.1" xmlns="http://www.w3.org/2000/svg" xmlns:xlink="http://www.w3.org/1999/xlink">
    <!-- Generator: Sketch 55.2 (78181) - https://sketchapp.com -->
    <title>croatia</title>
    <desc>Created with Sketch.</desc>
    <defs>
        <circle id="path-1" cx="144" cy="144" r="144"></circle>
    </defs>
    <g id="Map-Pin-Collection-Flags---Flat-Style" stroke="none" stroke-width="1" fill="none" fill-rule="evenodd">
        <g id="Flat-Colors-Blue" transform="translate(-2031.000000, -6827.000000)">
            <g id="croatia" transform="translate(2036.000000, 6832.000000)">
                <path d="M170.212439,503.092909 L170.210104,503.089529 C147.603539,470.316717 135.66262,453.231309 98.6528889,400.49836 C72.610034,363.391456 60.8130392,346.3874 49.5611526,329.534042 C22.0576461,288.338598 9.26101232,264.050069 2.86645193,239.769209 C-0.913750232,225.415359 -2.5,210.732512 -2.5,192 C-2.5,84.5802881 84.5802881,-2.5 192,-2.5 C299.419712,-2.5 386.5,84.5802881 386.5,192 C386.5,210.732512 384.91375,225.415359 381.133548,239.769209 C374.738988,264.050069 361.942354,288.338598 334.438847,329.534042 C323.186961,346.3874 311.389966,363.391456 285.347111,400.49836 C248.33738,453.231309 236.396461,470.316717 213.78754,503.09294 C203.258631,518.302713 180.740769,518.302337 170.212439,503.092909 Z" id="Path" stroke="#3D3D3D" stroke-width="5" fill="#54A0FF"></path>
                <path d="M191.732,0 C297.771,0 383.732,85.961 383.732,192 C383.732,269.413 356.762,291.031 211.464,501.67 C206.459458,508.899425 198.463221,512.334137 190.615878,511.974569" id="Shape" fill="#2E86DE"></path>
                <g id="Bg" transform="translate(48.000000, 48.000000)">
                    <mask id="mask-2" fill="white">
                        <use xlink:href="#path-1"></use>
                    </mask>
                    <circle stroke="#3D3D3D" stroke-width="5" cx="144" cy="144" r="146.5"></circle>
                    <g id="croatia" mask="url(#mask-2)">
                        <g transform="translate(-1.000000, -1.000000)">
                            <path d="M290,145 C290,127.263555 286.809434,110.273066 280.981113,94.5654883 L145,88.2608203 L9.01888672,94.5649219 C3.19056641,110.273066 0,127.263555 0,145 C0,162.736445 3.19056641,179.726934 9.01888672,195.434512 L145,201.73918 L280.981113,195.435078 C286.809434,179.726934 290,162.736445 290,145 Z" id="Path" fill="#FFFFFF" fill-rule="nonzero"></path>
                            <path d="M145,290 C207.344902,290 260.493633,250.650625 280.981113,195.434512 L9.01888672,195.434512 C29.5063672,250.650625 82.6550977,290 145,290 Z" id="Path" fill="#0052B4" fill-rule="nonzero"></path>
                            <path d="M9.01888672,94.5654883 L280.98168,94.5654883 C260.493633,39.349375 207.344902,0 145,0 C82.6550977,0 29.5063672,39.349375 9.01888672,94.5654883 Z" id="Path" fill="#D80027" fill-rule="nonzero"></path>
                            <g id="Group" stroke-width="1" fill="none" fill-rule="evenodd" transform="translate(94.023438, 56.640625)">
                                <polygon id="Path" fill="#338AF3" fill-rule="nonzero" points="88.8028711 44.2295312 63.585332 44.2295312 67.7886328 12.7073242 84.5995703 0.0985546875 101.411074 12.7073242 101.411074 37.9248633"></polygon>
                                <polygon id="Path" fill="#338AF3" fill-rule="nonzero" points="13.1502539 44.2295312 38.367793 44.2295312 34.1644922 12.7073242 17.3529883 0.0985546875 0.542050781 12.7073242 0.542050781 37.9248633"></polygon>
                            </g>
                            <polygon id="Path" fill="#0052B4" fill-rule="nonzero" points="161.81207 100.870156 128.18793 100.870156 128.18793 69.3479492 145 56.7391797 161.81207 69.3479492"></polygon>
                            <path d="M94.5654883,94.5660547 L94.5654883,163.913438 C94.5654883,180.425879 102.541621,195.110527 114.843965,204.316328 L123.670273,202.10791 L134.808086,213.312559 C138.101738,213.991113 141.509805,214.348516 145.000566,214.348516 C148.472637,214.348516 151.863711,213.995645 155.139805,213.323887 L167.853926,202.737754 L175.156035,204.295937 C187.453281,195.090703 195.435078,180.421348 195.435078,163.913437 L195.435078,94.5660547 L94.5654883,94.5660547 Z" id="Path" fill="#F0F0F0" fill-rule="nonzero"></path>
                            <g id="Group" stroke-width="1" fill="none" fill-rule="evenodd" transform="translate(94.023438, 94.023438)">
                                <rect id="Rectangle" fill="#D80027" fill-rule="nonzero" x="0.542050781" y="0.542050781" width="20.1736914" height="20.1736914"></rect>
                                <rect id="Rectangle" fill="#D80027" fill-rule="nonzero" x="40.8894336" y="0.542050781" width="20.1736914" height="20.1736914"></rect>
                                <rect id="Rectangle" fill="#D80027" fill-rule="nonzero" x="81.2373828" y="0.542050781" width="20.1736914" height="20.1736914"></rect>
                                <rect id="Rectangle" fill="#D80027" fill-rule="nonzero" x="20.7157422" y="20.7157422" width="20.1736914" height="20.1736914"></rect>
                                <rect id="Rectangle" fill="#D80027" fill-rule="nonzero" x="61.0636914" y="20.7157422" width="20.1736914" height="20.1736914"></rect>
                                <rect id="Rectangle" fill="#D80027" fill-rule="nonzero" x="0.542050781" y="40.8832031" width="20.1736914" height="20.1736914"></rect>
                                <rect id="Rectangle" fill="#D80027" fill-rule="nonzero" x="20.7157422" y="61.0574609" width="20.1736914" height="20.1736914"></rect>
                                <rect id="Rectangle" fill="#D80027" fill-rule="nonzero" x="40.8894336" y="40.8832031" width="20.1736914" height="20.1736914"></rect>
                                <rect id="Rectangle" fill="#D80027" fill-rule="nonzero" x="81.2373828" y="40.8832031" width="20.1736914" height="20.1736914"></rect>
                                <rect id="Rectangle" fill="#D80027" fill-rule="nonzero" x="61.0636914" y="61.0574609" width="20.1736914" height="20.1736914"></rect>
                                <rect id="Rectangle" fill="#D80027" fill-rule="nonzero" x="40.8894336" y="81.2311523" width="20.1736914" height="20.1736914"></rect>
                                <path d="M20.7157422,81.2328516 L1.84365234,81.2328516 C3.57458984,88.7320703 6.97755859,95.594082 11.6436133,101.406543 L20.7157422,101.406543 L20.7157422,81.2328516 L20.7157422,81.2328516 Z" id="Path" fill="#D80027" fill-rule="nonzero"></path>
                                <path d="M81.2373828,101.407109 L90.3089453,101.407109 C94.9761328,95.5946484 98.3779687,88.7320703 100.108906,81.233418 L81.2373828,81.233418 L81.2373828,101.407109 L81.2373828,101.407109 Z" id="Path" fill="#D80027" fill-rule="nonzero"></path>
                                <path d="M20.7157422,101.407109 L20.7157422,110.209629 C26.5831445,114.624766 33.4400586,117.79041 40.8894336,119.309512 L40.8894336,101.407109 L20.7157422,101.407109 L20.7157422,101.407109 Z" id="Path" fill="#D80027" fill-rule="nonzero"></path>
                                <path d="M61.0636914,101.407109 L61.0636914,119.309512 C68.5136328,117.791543 75.3699805,114.624766 81.2373828,110.209629 L81.2373828,101.407109 L61.0636914,101.407109 L61.0636914,101.407109 Z" id="Path" fill="#D80027" fill-rule="nonzero"></path>
                            </g>
                        </g>
                    </g>
                </g>
            </g>
        </g>
    </g>
</svg>