<?xml version="1.0" encoding="UTF-8"?>
<svg width="394px" height="522px" viewBox="0 0 394 522" version="1.1" xmlns="http://www.w3.org/2000/svg" xmlns:xlink="http://www.w3.org/1999/xlink">
    <!-- Generator: Sketch 55.2 (78181) - https://sketchapp.com -->
    <title>united-kingdom</title>
    <desc>Created with Sketch.</desc>
    <defs>
        <circle id="path-1" cx="144" cy="144" r="144"></circle>
    </defs>
    <g id="Map-Pin-Collection-Flags---Flat-Style" stroke="none" stroke-width="1" fill="none" fill-rule="evenodd">
        <g id="Flat-Colors-Blue" transform="translate(-1547.000000, -27023.000000)">
            <g id="united-kingdom" transform="translate(1552.000000, 27028.000000)">
                <path d="M170.212439,503.092909 L170.210104,503.089529 C147.603539,470.316717 135.66262,453.231309 98.6528889,400.49836 C72.610034,363.391456 60.8130392,346.3874 49.5611526,329.534042 C22.0576461,288.338598 9.26101232,264.050069 2.86645193,239.769209 C-0.913750232,225.415359 -2.5,210.732512 -2.5,192 C-2.5,84.5802881 84.5802881,-2.5 192,-2.5 C299.419712,-2.5 386.5,84.5802881 386.5,192 C386.5,210.732512 384.91375,225.415359 381.133548,239.769209 C374.738988,264.050069 361.942354,288.338598 334.438847,329.534042 C323.186961,346.3874 311.389966,363.391456 285.347111,400.49836 C248.33738,453.231309 236.396461,470.316717 213.78754,503.09294 C203.258631,518.302713 180.740769,518.302337 170.212439,503.092909 Z" id="Path" stroke="#3D3D3D" stroke-width="5" fill="#54A0FF"></path>
                <path d="M191.732,0 C297.771,0 383.732,85.961 383.732,192 C383.732,269.413 356.762,291.031 211.464,501.67 C206.459458,508.899425 198.463221,512.334137 190.615878,511.974569" id="Shape" fill="#2E86DE"></path>
                <g id="Bg" transform="translate(48.000000, 37.000000)">
                    <mask id="mask-2" fill="white">
                        <use xlink:href="#path-1"></use>
                    </mask>
                    <circle stroke="#3D3D3D" stroke-width="5" cx="144" cy="144" r="146.5"></circle>
                    <g id="united-kingdom" mask="url(#mask-2)" fill-rule="nonzero">
                        <circle id="Oval" fill="#FFFFFF" cx="144" cy="144" r="144"></circle>
                        <g id="Group" transform="translate(4.500000, 4.500000)" fill="#012169">
                            <path d="M25.2675,51.829875 C13.9561875,66.5465625 5.427,83.50875 0.4606875,101.935688 L75.3733125,101.935688 L25.2675,51.829875 Z" id="Path"></path>
                            <path d="M278.539312,101.935688 C273.573,83.5093125 265.04325,66.547125 253.7325,51.8304375 L203.627813,101.935688 L278.539312,101.935688 Z" id="Path"></path>
                            <path d="M0.4606875,177.066 C5.4275625,195.492375 13.95675,212.454563 25.2675,227.170687 L75.371625,177.066 L0.4606875,177.066 L0.4606875,177.066 Z" id="Path"></path>
                            <path d="M227.170125,25.2680625 C212.453437,13.95675 195.491812,5.4275625 177.064875,0.4606875 L177.064875,75.37275 L227.170125,25.2680625 Z" id="Path"></path>
                            <path d="M51.829875,253.731938 C66.5465625,265.04325 83.50875,273.572437 101.935125,278.539312 L101.935125,203.627813 L51.829875,253.731938 Z" id="Path"></path>
                            <path d="M101.934562,0.4606875 C83.5081875,5.4275625 66.546,13.95675 51.829875,25.2675 L101.934562,75.3721875 L101.934562,0.4606875 Z" id="Path"></path>
                            <path d="M177.065438,278.539312 C195.491813,273.572437 212.454,265.04325 227.170125,253.7325 L177.065438,203.627813 L177.065438,278.539312 Z" id="Path"></path>
                            <path d="M203.627813,177.066 L253.7325,227.17125 C265.04325,212.455125 273.573,195.492375 278.539312,177.066 L203.627813,177.066 Z" id="Path"></path>
                        </g>
                        <g id="Group" fill="#C8102E">
                            <path d="M286.781063,125.217562 L162.783563,125.217562 L162.783,125.217562 L162.783,1.2189375 C156.634313,0.4185 150.365813,0 144,0 C137.633062,0 131.365687,0.4185 125.217562,1.2189375 L125.217562,125.216437 L125.217562,125.217 L1.2189375,125.217 C0.4185,131.365687 0,137.634187 0,144 C0,150.366938 0.4185,156.634313 1.2189375,162.782438 L125.216437,162.782438 L125.217,162.782438 L125.217,286.781063 C131.365687,287.5815 137.633062,288 144,288 C150.365813,288 156.634313,287.582063 162.782438,286.781063 L162.782438,162.783563 L162.782438,162.783 L286.781063,162.783 C287.5815,156.634313 288,150.366938 288,144 C288,137.634187 287.5815,131.365687 286.781063,125.217562 Z" id="Path"></path>
                            <path d="M181.565438,181.565438 L181.565438,181.565438 L245.823188,245.82375 C248.778563,242.8695 251.597813,239.780813 254.287688,236.579063 L199.274062,181.565438 L181.565438,181.565438 L181.565438,181.565438 Z" id="Path"></path>
                            <path d="M106.434563,181.566 L106.433438,181.566 L42.17625,245.823188 C45.1305,248.778563 48.2191875,251.597813 51.4209375,254.287688 L106.434563,199.272938 L106.434563,181.566 Z" id="Path"></path>
                            <path d="M106.434563,106.435688 L106.434563,106.434562 L42.1768125,42.17625 C39.2214375,45.1305 36.4021875,48.2191875 33.7123125,51.4209375 L88.7265,106.435688 L106.434563,106.435688 L106.434563,106.435688 Z" id="Path"></path>
                            <path d="M181.565438,106.435688 L181.565438,106.435688 L245.82375,42.1768125 C242.8695,39.2214375 239.780813,36.4021875 236.579063,33.712875 L181.565438,88.7270625 L181.565438,106.435688 L181.565438,106.435688 Z" id="Path"></path>
                        </g>
                    </g>
                </g>
            </g>
        </g>
    </g>
</svg>